# xmcd
#
# Track frame offsets:
#	150
#	19110
#	38426
#	58145
#	77173
#	96584
#	115460
#	133482
#	150442
#	167810
#	186504
#	205541
#	224139
#	241589
#
# Disc length: 3453 seconds
#
# Revision: 1
# Processed by: cddbd v1.5.2PL0 Copyright (c) Steve Scherf et al.
# Submitted via: audiograbber 1.83.01
#
DISCID=c80d7b0e
DTITLE=Toto Cutugno - Brilliant Stars of Italy
DYEAR=2003
DGENRE=Pop
TTITLE0=Gli Amori
TTITLE1=Gamminero
TTITLE2=Se Non Avessi Te
TTITLE3=Posso Ancora Volare
TTITLE4=Per Te
TTITLE5=Le Mamme
TTITLE6=Io Vorrei
TTITLE7=Strana Gelosia
TTITLE8=Ci Vuole Un'Idea
TTITLE9=Emozioni
TTITLE10=La Fine Del Mondo
TTITLE11=Ora Che Ci Sei
TTITLE12=Piacere Rai
TTITLE13=Innamorati
EXTD=
EXTT0=
EXTT1=
EXTT2=
EXTT3=
EXTT4=
EXTT5=
EXTT6=
EXTT7=
EXTT8=
EXTT9=
EXTT10=
EXTT11=
EXTT12=
EXTT13=
PLAYORDER=
